<?xml version="1.0" standalone="no"?><!DOCTYPE svg PUBLIC "-//W3C//DTD SVG 1.1//EN" "http://www.w3.org/Graphics/SVG/1.1/DTD/svg11.dtd"><svg t="1556352255659" class="icon" style="" viewBox="0 0 1024 1024" version="1.1" xmlns="http://www.w3.org/2000/svg" p-id="2051" xmlns:xlink="http://www.w3.org/1999/xlink" width="64" height="64"><defs><style type="text/css"></style></defs><path d="M511.3 64.9C264.7 64.9 64 265.6 64 512.2c0 246.7 200.7 447.3 447.3 447.3 246.7 0 447.3-200.7 447.3-447.3 0.1-246.6-200.6-447.3-447.3-447.3z m0 840.8c-217 0-393.5-176.5-393.5-393.5s176.5-393.5 393.5-393.5 393.5 176.5 393.5 393.5-176.5 393.5-393.5 393.5z" fill="#e6e6e6" p-id="2052"></path><path d="M710.4 493.6l-170.8 172-0.9-345.7c0-14.8-12.1-26.9-26.9-26.9h-0.1c-14.9 0-26.9 12.1-26.9 27l0.9 347.7-174-172.7c-10.5-10.5-27.6-10.4-38.1 0.1-10.5 10.6-10.4 27.6 0.1 38.1l219.1 217.6c5.3 5.2 12.1 7.8 19 7.8h1.1c9.5 0 17.8-5 22.6-12.5l213.1-214.5c10.5-10.6 10.4-27.6-0.1-38.1-10.6-10.5-27.6-10.4-38.1 0.1z" fill="#e6e6e6" p-id="2053"></path><path d="M512.3 239.2m-26.9 0a26.9 26.9 0 1 0 53.8 0 26.9 26.9 0 1 0-53.8 0Z" fill="#e6e6e6" p-id="2054"></path></svg>