<?xml version="1.0" standalone="no"?><!DOCTYPE svg PUBLIC "-//W3C//DTD SVG 1.1//EN" "http://www.w3.org/Graphics/SVG/1.1/DTD/svg11.dtd"><svg t="1555309557601" class="icon" style="" viewBox="0 0 1024 1024" version="1.1" xmlns="http://www.w3.org/2000/svg" p-id="3854" xmlns:xlink="http://www.w3.org/1999/xlink" width="200" height="200"><defs><style type="text/css"></style></defs><path d="M544.865 693.945v73.29h-63.73v-73.29c-19.117-9.561-31.865-31.865-31.865-54.17 0-35.053 28.681-63.73 63.73-63.73 35.053 0 63.73 28.677 63.73 63.73 0 22.306-12.744 44.61-31.865 54.17z" p-id="3855" fill="#e6e6e6"></path><path d="M768.333 448.209l-0.184-128.212c0-108.34-147.527-192.361-255.866-192.361S256.05 211.657 256.05 319.996l0.184 128.212h-64.012v447.431h640.124v-447.43h-64.013zM319.996 319.996c0-73.29 115.53-128.631 188.816-128.631 73.29 0 193.695 55.341 193.695 128.631l1.53 128.212H319.963l0.033-128.212z m448.337 511.725H256.234V511.008l513.046 0.586-0.947 320.127z" p-id="3856" fill="#e6e6e6"></path></svg>