<?xml version="1.0" standalone="no"?><!DOCTYPE svg PUBLIC "-//W3C//DTD SVG 1.1//EN" "http://www.w3.org/Graphics/SVG/1.1/DTD/svg11.dtd"><svg t="1555380721273" class="icon" style="" viewBox="0 0 1024 1024" version="1.1" xmlns="http://www.w3.org/2000/svg" p-id="2191" xmlns:xlink="http://www.w3.org/1999/xlink" width="64" height="64"><defs><style type="text/css"></style></defs><path d="M897.1 908.4H144.3V83.7h752.8v824.7z m-718.6-34.2h684.4V117.9H178.5v756.3z" fill="#e6e6e6" p-id="2192"></path><path d="M207.9 143.3h624.7v15.3H207.9z" fill="#e6e6e6" p-id="2193"></path><path d="M446.4 561.4c-51.9-31.7-81.9-76.1-83.8-137.4-1.3-42.9 13.3-80.1 42.9-111.1 64.9-68 168.3-66.2 231.8 2.5 67.3 72.7 48.7 198.9-43.4 246.1 4.5 2 8.5 3.7 12.6 5.5C670.1 594.3 714 640.5 737 705.9c5.2 14.9 7.4 30.8 10.7 46.3 0.6 2.7 0.2 5.7-0.5 8.4-1.7 6.8-6.5 10.3-13 10.1-6.9-0.2-11.9-4.4-13.3-11.1-2.6-12.6-4.1-25.6-8.2-37.7-25.8-77-77.7-125.7-158.1-140.1-68.9-12.3-128.8 7.7-178.4 57.3C344 671.3 326 710.6 320 755.6c-1.1 8.5-4.5 13.3-10.8 14.9-9.5 2.3-17.6-4.8-16.6-14.9 3.4-36.1 15.1-69.3 34.7-99.7 26.6-41.1 62.7-70.9 108-89.5 2.9-1.2 5.8-2.5 8.6-3.8 0.5-0.2 1.1-0.5 2.5-1.2z m73.7-10.3c71.2 0 128.6-57.4 129.7-127.2 1.2-76-59.1-131.1-126.4-132.9-70.4-1.8-131.9 54.3-133.1 128-1.1 72.2 56.6 132 129.8 132.1z" fill="#e6e6e6" p-id="2194"></path><path d="M626.3 421c0 53-43.1 95.9-96.4 95.9v-24c39.9 0 72.2-32.2 72.2-72s-32.3-72-72.2-72v-24c53.2 0.2 96.4 43.1 96.4 96.1z" fill="#e6e6e6" p-id="2195"></path></svg>