<?xml version="1.0" standalone="no"?><!DOCTYPE svg PUBLIC "-//W3C//DTD SVG 1.1//EN" "http://www.w3.org/Graphics/SVG/1.1/DTD/svg11.dtd"><svg t="1555309157788" class="icon" style="" viewBox="0 0 1024 1024" version="1.1" xmlns="http://www.w3.org/2000/svg" p-id="2140" xmlns:xlink="http://www.w3.org/1999/xlink" width="200" height="200"><defs><style type="text/css"></style></defs><path d="M929.230625 556.6371875000001V458.93h-51.5878125c-5.970000000000001-44.7440625-19.696875000000002-87.02625-40.285312499999996-125.1778125l41.43-30.069374999999997-57.423750000000005-79.03875000000001-41.720625000000005 30.282187500000003c-30.320625-31.755937499999998-66.301875-57.928125-106.314375-77.19749999999999l15.935625000000002-49.066875-92.9015625-30.185625-15.89625 48.99c-21.364687500000002-3.8775-43.2515625-6.204375000000001-65.74125-6.204375000000001-22.447499999999998 0-44.355 2.3268750000000002-65.71875 6.204375000000001L433.109375 98.47531249999997l-92.919375 30.185625 15.955312499999998 49.066875c-40.014375 19.269375-75.995625 45.441562499999996-106.31625 77.19749999999999l-41.739374999999995-30.282187500000003-57.403124999999996 79.02 41.4290625 30.088125c-20.607187500000002 38.152499999999996-34.314375 80.4346875-40.285312499999996 125.15812500000001H100.2425v97.7278125h51.5878125c5.9709375 44.745000000000005 19.678124999999998 87.0271875 40.285312499999996 125.16093749999999l-41.4290625 30.106875 57.4228125 79.0190625 41.7196875-30.283125c30.301875000000003 31.775624999999998 66.283125 57.9103125 106.2965625 77.1796875l-15.956249999999999 49.0846875 92.9390625 30.166874999999997 15.898124999999999-48.97125c21.3440625 3.8784374999999995 43.27125 6.204375000000001 65.71875 6.204375000000001 22.489687500000002 0 44.3765625-2.3259374999999998 65.7225-6.204375000000001l15.9159375 48.99 92.9015625-30.184687500000003-15.935625000000002-49.066875c40.013437499999995-19.288125 75.99468750000001-45.4228125 106.314375-77.1984375l41.720625000000005 30.283125 57.403124999999996-79.0190625-41.410312499999996-30.106875c20.588437499999998-38.1140625 34.315312500000005-80.4159375 40.285312499999996-125.16093749999999h51.5878125zM777.7446875 638.50625c-14.6953125 29.5078125-34.0040625 56.279999999999994-57.3084375 79.09687500000001-20.510625 20.143125-43.987500000000004 37.222500000000004-69.7125 50.6578125-28.556250000000002 14.946562499999999-59.865 25.1446875-92.9775 30.01125-14.075624999999999 2.055-28.3640625 3.489375-43.0209375 3.489375-14.6540625 0-28.9425-1.4334375-42.9984375-3.489375-33.13125-4.8656250000000005-64.44-15.06375-92.9971875-30.01125-25.70625-13.455-49.2028125-30.5146875-69.71437499999999-50.6578125-23.3015625-22.816875-42.61125-49.59-57.285937499999996-79.09687500000001-12.699375-25.4540625-21.7134375-52.905-26.580000000000002-81.8690625-2.6953125-15.915-4.400625-32.180625-4.400625-48.853125 0-16.6734375 1.70625-32.938125 4.400625-48.8746875 4.8665625-28.963124999999998 13.880624999999998-56.415 26.580000000000002-81.849375 14.674687500000001-29.506875 33.984375-56.2790625 57.285937499999996-79.1165625 20.5115625-20.1234375 44.008125-37.20375 69.71437499999999-50.637187499999996 28.556250000000002-14.947500000000002 59.884687500000005-25.125 92.9971875-30.01125 14.0746875-2.0540624999999997 28.363125-3.489375 42.9984375-3.489375 14.656875 0 28.9453125 1.4353125 43.0209375 3.489375 33.111562500000005 4.8853125 64.42125 15.0628125 92.9775 30.01125a294.061875 294.061875 0 0 1 69.733125 50.637187499999996c23.283749999999998 22.8375 42.5934375 49.6096875 57.2878125 79.09687500000001 12.6984375 25.4540625 21.7125 52.9059375 26.5790625 81.88875 2.694375 15.936562499999999 4.401562500000001 32.1815625 4.401562500000001 48.855000000000004 0 16.6725-1.7071874999999999 32.938125-4.401562500000001 48.853125-4.8665625 28.965-13.880624999999998 56.415-26.5790625 81.8690625z" p-id="2141" fill="#2c2c2c"></path></svg>